<?xml version="1.0" standalone="yes"?>
<svg width="1000" height="1000">
<path style="fill:#ffffff; stroke:none;" d="M0 0L0 237L1 237C1.05477 217.151 6.76834 196.695 13 178C35.2699 111.19 84.3163 57.0908 147 25.7531C173.872 12.3187 206.628 1.0838 237 1L215 0L167 0L0 0z"/>
<path style="fill:#fff000; stroke:none;" d="M237 0.424377C207.286 4.33734 178.234 10.0809 151 23.2585C73.1014 60.9506 15.2388 133.449 2.42747 220C-4.40824 266.181 0 315.364 0 362L0 588C0 692.15 -15.8637 804.916 49.7346 894C88.8195 947.078 148.651 985.602 214 996.565C258.926 1004.1 306.547 1000 352 1000L572 1000L697 1000C726.451 1000 755.825 1001.23 785 996.725C881.695 981.797 966.209 904.288 991.116 810C1004.81 758.14 1000 703.183 1000 650L1000 392C1000 296.462 1012.94 194.629 954.576 112C914.986 55.9509 854.204 14.8771 786 3.43518C742.019 -3.94299 695.494 0 651 0L450 0L309 0C285.525 0 260.268 -2.63971 237 0.424377z"/>
<path style="fill:#ffffff; stroke:none;" d="M763 0L763 1C782.849 1.05475 803.305 6.76837 822 13C888.81 35.2699 942.909 84.3163 974.247 147C987.681 173.872 998.916 206.628 999 237L1000 237L1000 0L763 0z"/>
<path style="fill:#808000; stroke:none;" d="M220 2L221 3L220 2M779 2L780 3L779 2M167 16L168 17L167 16M832 16L833 17L832 16z"/>
<path style="fill:#010100; stroke:none;" d="M131 33L132 34L131 33M868 33L869 34L868 33M121 39L122 40L121 39M878 39L879 40L878 39z"/>
<path style="fill:#808000; stroke:none;" d="M101 53L102 54L101 53M898 53L899 54L898 53z"/>
<path style="fill:#010100; stroke:none;" d="M81 70L82 71L81 70M918 70L919 71L918 70z"/>
<path style="fill:#808000; stroke:none;" d="M80 71L81 72L80 71M919 71L920 72L919 71M71 80L72 81L71 80M928 80L929 81L928 80z"/>
<path style="fill:#010100; stroke:none;" d="M70 81L71 82L70 81M929 81L930 82L929 81z"/>
<path style="fill:#808000; stroke:none;" d="M53 101L54 102L53 101M946 101L947 102L946 101z"/>
<path style="fill:#010100; stroke:none;" d="M39 121L40 122L39 121M960 121L961 122L960 121M33 131L34 132L33 131M966 131L967 132L966 131z"/>
<path style="fill:#808000; stroke:none;" d="M16 167L17 168L16 167M983 167L984 168L983 167z"/>
<path style="fill:#7fc975; stroke:none;" d="M673 615L673 385L418 385L352 385C346.533 385 333.009 382.538 328.603 386.028C323.963 389.703 327 409.339 327 415L327 503L327 584C327 590.598 323.873 608.151 328.028 613.397C331.083 617.254 344.474 615 349 615L413 615L673 615z"/>
<path style="fill:#00a2e9; stroke:none;" d="M328 386L328 614L672 614L672 386L328 386z"/>
<path style="fill:#ffffff; stroke:none;" d="M0 763L0 1000L237 1000L237 999C216.775 998.944 196.039 993.013 177 986.667C108.398 963.799 52.3484 911.431 22.3086 846C14.5729 829.15 8.76263 811.152 5.00309 793C3.07465 783.689 3.61813 771.603 0 763M999 763C998.916 793.372 987.681 826.128 974.247 853C942.909 915.684 888.81 964.73 822 987C803.305 993.232 782.849 998.945 763 999L763 1000L1000 1000L1000 833L1000 785L999 763z"/>
<path style="fill:#808000; stroke:none;" d="M16 832L17 833L16 832M983 832L984 833L983 832z"/>
<path style="fill:#010100; stroke:none;" d="M33 868L34 869L33 868M966 868L967 869L966 868M39 878L40 879L39 878M960 878L961 879L960 878z"/>
<path style="fill:#808000; stroke:none;" d="M53 898L54 899L53 898M946 898L947 899L946 898z"/>
<path style="fill:#010100; stroke:none;" d="M70 918L71 919L70 918M929 918L930 919L929 918z"/>
<path style="fill:#808000; stroke:none;" d="M71 919L72 920L71 919M928 919L929 920L928 919M80 928L81 929L80 928M919 928L920 929L919 928z"/>
<path style="fill:#010100; stroke:none;" d="M81 929L82 930L81 929M918 929L919 930L918 929z"/>
<path style="fill:#808000; stroke:none;" d="M101 946L102 947L101 946M898 946L899 947L898 946z"/>
<path style="fill:#010100; stroke:none;" d="M121 960L122 961L121 960M878 960L879 961L878 960M131 966L132 967L131 966M868 966L869 967L868 966z"/>
<path style="fill:#808000; stroke:none;" d="M167 983L168 984L167 983M832 983L833 984L832 983M220 997L221 998L220 997M779 997L780 998L779 997z"/>
</svg>
